<svg width="16" height="16" viewBox="0 0 16 16" fill="none" xmlns="http://www.w3.org/2000/svg">
<rect width="16" height="16" rx="3" fill="#DEDEDE"/>
<g clip-path="url(#clip0_430_773)">
<path d="M7.96971 13.4546C7.96971 13.4546 3.07382 9.10581 4.26556 5.41392C5.0024 3.13125 6.73483 2.58242 8.01825 2.58779C9.30165 2.59316 11.0291 3.15648 11.7455 5.44523C12.9043 9.14695 7.96971 13.4546 7.96971 13.4546Z" fill="#770022"/>
<path d="M9.94467 4.88041C8.88518 3.82296 7.16013 3.81574 6.09164 4.86428C5.02316 5.91282 5.01586 7.62006 6.07535 8.67751C7.13483 9.73496 8.85989 9.74218 9.92837 8.69364C10.9969 7.64509 11.0042 5.93785 9.94467 4.88041Z" fill="#DEDEDE"/>
<mask id="mask0_430_773" style="mask-type:luminance" maskUnits="userSpaceOnUse" x="6" y="5" width="4" height="4">
<path d="M9.64019 5.19203H6.40649V8.39233H9.64019V5.19203Z" fill="white"/>
</mask>
<g mask="url(#mask0_430_773)">
<path d="M6.90261 5.22322C6.84261 5.17697 6.75735 5.18259 6.70303 5.23573L6.4504 5.48575C6.39671 5.53887 6.39103 5.62326 6.43713 5.68326L6.9424 6.33333C6.97082 6.3702 7.01566 6.39209 7.0624 6.39209H7.40408L8.0925 7.0734C7.99966 7.25466 8.02935 7.48218 8.18282 7.63344L8.89018 8.3335C8.96913 8.41164 9.09735 8.41164 9.1763 8.3335L9.5805 7.93347C9.65945 7.85534 9.65945 7.72844 9.5805 7.65031L8.87313 6.95026C8.7203 6.79899 8.4904 6.76898 8.30725 6.86087L7.61883 6.17956V5.84203C7.61883 5.79515 7.59671 5.7514 7.55945 5.72327L6.90261 5.22322ZM6.53188 7.66782C6.45166 7.7472 6.40618 7.85534 6.40618 7.96784C6.40618 8.20224 6.59818 8.39226 6.83503 8.39226C6.94871 8.39226 7.05798 8.34726 7.13818 8.26788L7.88218 7.53155C7.83293 7.40091 7.82535 7.25904 7.85945 7.12464L7.46976 6.73899L6.53188 7.66782ZM9.63988 6.09205C9.63988 6.02643 9.63293 5.96267 9.61967 5.90141C9.6045 5.8314 9.51798 5.81328 9.46683 5.8639L9.06325 6.26331C9.0443 6.28207 9.0184 6.2927 8.99188 6.2927H8.62935C8.57377 6.2927 8.5283 6.24769 8.5283 6.19269V5.83327C8.5283 5.80702 8.53903 5.78139 8.55798 5.76264L8.96156 5.36323C9.01272 5.31261 8.9944 5.22697 8.92366 5.21198C8.86113 5.19884 8.79672 5.19197 8.7304 5.19197C8.2283 5.19197 7.82093 5.59513 7.82093 6.09205V6.09705L8.35966 6.63023C8.58703 6.57335 8.8384 6.63335 9.0165 6.80961L9.11566 6.90776C9.42513 6.76398 9.63988 6.45271 9.63988 6.09205Z" fill="#0A0908"/>
</g>
</g>
<defs>
<clipPath id="clip0_430_773">
<rect width="8" height="11.0222" fill="white" transform="translate(4 2.5)"/>
</clipPath>
</defs>
</svg>
