<svg width="40" height="36" viewBox="0 0 40 36" fill="none" xmlns="http://www.w3.org/2000/svg">
<path d="M20 29C22.5 29 24.6253 28.1247 26.376 26.374C28.1267 24.6233 29.0013 22.4987 29 20C29 17.5 28.1247 15.3747 26.374 13.624C24.6233 11.8733 22.4987 10.9987 20 11C17.5 11 15.3747 11.8753 13.624 13.626C11.8733 15.3767 10.9987 17.5013 11 20C11 22.5 11.8753 24.6253 13.626 26.376C15.3767 28.1267 17.5013 29.0013 20 29ZM20 25C18.6 25 17.4167 24.5167 16.45 23.55C15.4833 22.5833 15 21.4 15 20C15 18.6 15.4833 17.4167 16.45 16.45C17.4167 15.4833 18.6 15 20 15C21.4 15 22.5833 15.4833 23.55 16.45C24.5167 17.4167 25 18.6 25 20C25 21.4 24.5167 22.5833 23.55 23.55C22.5833 24.5167 21.4 25 20 25ZM4 36C2.9 36 1.958 35.608 1.174 34.824C0.390003 34.04 -0.00132994 33.0987 3.39559e-06 32V8C3.39559e-06 6.9 0.392003 5.958 1.176 5.174C1.96 4.39 2.90134 3.99867 4 4H10.3L14 0H26L29.7 4H36C37.1 4 38.042 4.392 38.826 5.176C39.61 5.96 40.0013 6.90133 40 8V32C40 33.1 39.608 34.042 38.824 34.826C38.04 35.61 37.0987 36.0013 36 36H4ZM36 32V8H27.9L24.25 4H15.75L12.1 8H4V32H36Z" fill="#DEDEDE"/>
</svg>
