<svg width="95" height="35" viewBox="0 0 95 35" fill="none" xmlns="http://www.w3.org/2000/svg">
<path d="M4.94694 7.4839C5.40673 7.4839 5.81052 7.42495 6.15831 7.30705C6.51199 7.18916 6.80378 7.02411 7.03368 6.81189C7.26947 6.59379 7.44631 6.33147 7.5642 6.02495C7.6821 5.71842 7.74105 5.37653 7.74105 4.99926C7.74105 4.62789 7.6821 4.29484 7.5642 4.00011C7.4522 3.70537 7.28126 3.45484 7.05136 3.24853C6.82147 3.04221 6.52968 2.886 6.17599 2.7799C5.82821 2.66789 5.41852 2.61189 4.94694 2.61189H3.05473V7.4839H4.94694ZM4.94694 0.99379C5.7781 0.99379 6.49726 1.09105 7.10442 1.28558C7.71747 1.48011 8.22147 1.75421 8.61642 2.1079C9.01726 2.45568 9.31494 2.87716 9.50947 3.37232C9.70399 3.86158 9.80126 4.40389 9.80126 4.99926C9.80126 5.60642 9.6981 6.16347 9.49178 6.67042C9.28547 7.17147 8.97894 7.60474 8.5722 7.97021C8.16547 8.32979 7.65852 8.61274 7.05136 8.81905C6.4501 9.01947 5.74863 9.11968 4.94694 9.11968H3.05473V13.7264H0.985679V0.99379H4.94694ZM13.0651 6.37863C13.348 5.80684 13.6899 5.35884 14.0908 5.03463C14.4916 4.70453 14.972 4.53947 15.532 4.53947C15.7266 4.53947 15.9093 4.56305 16.0803 4.61021C16.2512 4.65147 16.4045 4.71632 16.54 4.80474L16.4074 6.23716C16.3838 6.33737 16.3455 6.40811 16.2925 6.44937C16.2453 6.48474 16.1805 6.50242 16.0979 6.50242C16.0095 6.50242 15.8828 6.48768 15.7177 6.45821C15.5527 6.42284 15.3788 6.40516 15.196 6.40516C14.9308 6.40516 14.695 6.44347 14.4887 6.52011C14.2883 6.59674 14.1055 6.70874 13.9405 6.85611C13.7813 7.00347 13.6398 7.18326 13.516 7.39547C13.3923 7.60768 13.2773 7.84937 13.1712 8.12053V13.7264H11.2702V4.70747H12.3754C12.5758 4.70747 12.7144 4.74579 12.791 4.82242C12.8676 4.89316 12.9207 5.01989 12.9502 5.20263L13.0651 6.37863ZM23.4026 8.20011C23.4026 7.88179 23.3555 7.58705 23.2612 7.3159C23.1727 7.03884 23.0401 6.80011 22.8633 6.59968C22.6864 6.39337 22.4654 6.23421 22.2001 6.12221C21.9407 6.00432 21.6401 5.94537 21.2982 5.94537C20.6085 5.94537 20.0662 6.14284 19.6713 6.53779C19.2763 6.93274 19.0258 7.48684 18.9197 8.20011H23.4026ZM18.8666 9.36726C18.8902 9.88011 18.9698 10.3252 19.1054 10.7024C19.2409 11.0738 19.4207 11.3833 19.6447 11.6308C19.8746 11.8784 20.1458 12.0641 20.4582 12.1879C20.7765 12.3058 21.1302 12.3647 21.5193 12.3647C21.8906 12.3647 22.2119 12.3235 22.483 12.2409C22.7542 12.1525 22.99 12.0582 23.1904 11.958C23.3908 11.8519 23.5618 11.7576 23.7033 11.6751C23.8447 11.5866 23.9744 11.5424 24.0923 11.5424C24.2456 11.5424 24.3635 11.6014 24.446 11.7193L24.9854 12.4178C24.7614 12.6831 24.5079 12.9071 24.2249 13.0898C23.942 13.2725 23.6414 13.4228 23.323 13.5407C23.0047 13.6527 22.6776 13.7323 22.3416 13.7795C22.0056 13.8325 21.6784 13.8591 21.3601 13.8591C20.7353 13.8591 20.1546 13.7559 19.6182 13.5496C19.0877 13.3374 18.6249 13.0279 18.23 12.6212C17.8409 12.2144 17.5344 11.7104 17.3104 11.1092C17.0923 10.5079 16.9833 9.81526 16.9833 9.03126C16.9833 8.40642 17.0805 7.82284 17.275 7.28053C17.4755 6.73821 17.7584 6.26663 18.1239 5.86579C18.4953 5.46495 18.9433 5.14958 19.4679 4.91968C19.9984 4.6839 20.5967 4.566 21.2628 4.566C21.8169 4.566 22.3298 4.65737 22.8014 4.84011C23.2729 5.01695 23.6797 5.27926 24.0216 5.62705C24.3635 5.97484 24.6287 6.40221 24.8174 6.90916C25.0119 7.41021 25.1092 7.982 25.1092 8.62453C25.1092 8.91926 25.0767 9.11674 25.0119 9.21695C24.947 9.31716 24.8292 9.36726 24.6582 9.36726H18.8666ZM26.882 13.7264V4.70747H28.0315C28.2908 4.70747 28.4559 4.82832 28.5266 5.07L28.6504 5.85695C28.8155 5.66832 28.9864 5.49737 29.1633 5.34411C29.3401 5.18495 29.5287 5.04937 29.7292 4.93737C29.9355 4.81947 30.1536 4.72811 30.3835 4.66326C30.6193 4.59842 30.8727 4.566 31.1439 4.566C31.4327 4.566 31.698 4.60726 31.9397 4.68979C32.1814 4.77232 32.3936 4.89021 32.5763 5.04347C32.7649 5.19674 32.927 5.38242 33.0626 5.60053C33.1982 5.81863 33.3102 6.06326 33.3986 6.33442C33.5342 6.022 33.7052 5.75379 33.9115 5.52979C34.1178 5.30579 34.3477 5.12305 34.6012 4.98158C34.8546 4.84011 35.1228 4.73695 35.4058 4.67211C35.6946 4.60137 35.9864 4.566 36.2812 4.566C36.7645 4.566 37.1948 4.64263 37.5721 4.7959C37.9553 4.94916 38.2765 5.17316 38.5359 5.4679C38.8012 5.75674 39.0016 6.11337 39.1372 6.53779C39.2727 6.96221 39.3405 7.44558 39.3405 7.98789V13.7264H37.4395V7.98789C37.4395 7.35126 37.3009 6.87379 37.0239 6.55547C36.7527 6.23126 36.3489 6.06916 35.8125 6.06916C35.5708 6.06916 35.3439 6.11042 35.1317 6.19295C34.9195 6.27547 34.7338 6.39632 34.5746 6.55547C34.4155 6.71463 34.2887 6.91505 34.1944 7.15674C34.106 7.39253 34.0618 7.66958 34.0618 7.98789V13.7264H32.1607V7.98789C32.1607 7.32768 32.0281 6.84432 31.7628 6.53779C31.4976 6.22537 31.1085 6.06916 30.5957 6.06916C30.242 6.06916 29.9148 6.16053 29.6142 6.34326C29.3136 6.52011 29.0365 6.76474 28.783 7.07716V13.7264H26.882ZM43.5419 4.70747V13.7264H41.6408V4.70747H43.5419ZM43.8602 1.98411C43.8602 2.15505 43.8248 2.31716 43.7541 2.47042C43.6893 2.62368 43.5979 2.75926 43.48 2.87716C43.3621 2.98916 43.2236 3.08053 43.0644 3.15126C42.9112 3.21611 42.7461 3.24853 42.5693 3.24853C42.3983 3.24853 42.2362 3.21611 42.083 3.15126C41.9356 3.08053 41.8059 2.98916 41.6939 2.87716C41.5819 2.75926 41.4905 2.62368 41.4198 2.47042C41.355 2.31716 41.3225 2.15505 41.3225 1.98411C41.3225 1.80726 41.355 1.64221 41.4198 1.48895C41.4905 1.33568 41.5819 1.20305 41.6939 1.09105C41.8059 0.973158 41.9356 0.881789 42.083 0.816948C42.2362 0.746211 42.3983 0.710842 42.5693 0.710842C42.7461 0.710842 42.9112 0.746211 43.0644 0.816948C43.2236 0.881789 43.3621 0.973158 43.48 1.09105C43.5979 1.20305 43.6893 1.33568 43.7541 1.48895C43.8248 1.64221 43.8602 1.80726 43.8602 1.98411ZM53.5347 4.70747V13.7264H52.3853C52.1318 13.7264 51.9697 13.6056 51.8989 13.3639L51.7575 12.5239C51.5688 12.7243 51.3684 12.9071 51.1562 13.0721C50.9499 13.2372 50.7288 13.3786 50.493 13.4965C50.2573 13.6144 50.0038 13.7058 49.7326 13.7706C49.4674 13.8355 49.1815 13.8679 48.8749 13.8679C48.3798 13.8679 47.9436 13.7854 47.5663 13.6203C47.189 13.4553 46.8707 13.2224 46.6114 12.9218C46.3579 12.6212 46.1663 12.2616 46.0366 11.8431C45.9069 11.4186 45.8421 10.9529 45.8421 10.446V4.70747H47.7431V10.446C47.7431 11.0532 47.8817 11.5247 48.1587 11.8607C48.4417 12.1967 48.869 12.3647 49.4408 12.3647C49.8594 12.3647 50.2484 12.2704 50.608 12.0818C50.9735 11.8873 51.3154 11.622 51.6337 11.286V4.70747H53.5347ZM55.8433 13.7264V4.70747H56.9928C57.2522 4.70747 57.4172 4.82832 57.488 5.07L57.6118 5.85695C57.7768 5.66832 57.9478 5.49737 58.1246 5.34411C58.3014 5.18495 58.4901 5.04937 58.6905 4.93737C58.8968 4.81947 59.1149 4.72811 59.3448 4.66326C59.5806 4.59842 59.8341 4.566 60.1052 4.566C60.3941 4.566 60.6593 4.60726 60.901 4.68979C61.1427 4.77232 61.3549 4.89021 61.5377 5.04347C61.7263 5.19674 61.8884 5.38242 62.024 5.60053C62.1596 5.81863 62.2716 6.06326 62.36 6.33442C62.4956 6.022 62.6665 5.75379 62.8728 5.52979C63.0791 5.30579 63.309 5.12305 63.5625 4.98158C63.816 4.84011 64.0842 4.73695 64.3671 4.67211C64.656 4.60137 64.9478 4.566 65.2425 4.566C65.7259 4.566 66.1562 4.64263 66.5334 4.7959C66.9166 4.94916 67.2379 5.17316 67.4972 5.4679C67.7625 5.75674 67.9629 6.11337 68.0985 6.53779C68.2341 6.96221 68.3019 7.44558 68.3019 7.98789V13.7264H66.4008V7.98789C66.4008 7.35126 66.2623 6.87379 65.9852 6.55547C65.7141 6.23126 65.3103 6.06916 64.7739 6.06916C64.5322 6.06916 64.3052 6.11042 64.093 6.19295C63.8808 6.27547 63.6951 6.39632 63.536 6.55547C63.3768 6.71463 63.2501 6.91505 63.1558 7.15674C63.0673 7.39253 63.0231 7.66958 63.0231 7.98789V13.7264H61.1221V7.98789C61.1221 7.32768 60.9894 6.84432 60.7242 6.53779C60.4589 6.22537 60.0699 6.06916 59.557 6.06916C59.2033 6.06916 58.8762 6.16053 58.5756 6.34326C58.2749 6.52011 57.9979 6.76474 57.7444 7.07716V13.7264H55.8433ZM9.82778 31.8881C9.93978 31.8881 10.037 31.9323 10.1196 32.0207L10.9419 32.9138C10.4232 33.5386 9.78652 34.022 9.03199 34.3639C8.27747 34.6999 7.37557 34.8679 6.32631 34.8679C5.39494 34.8679 4.55199 34.7087 3.79747 34.3904C3.04884 34.0662 2.40926 33.6182 1.87873 33.0464C1.3482 32.4687 0.938521 31.782 0.649679 30.9862C0.366731 30.1904 0.225258 29.3151 0.225258 28.3601C0.225258 27.4052 0.375573 26.5298 0.676205 25.734C0.982731 24.9323 1.4101 24.2456 1.95831 23.6738C2.51242 23.0961 3.17263 22.6481 3.93894 22.3298C4.71115 22.0115 5.55999 21.8523 6.48547 21.8523C7.40505 21.8523 8.21557 22.0026 8.91705 22.3033C9.62442 22.598 10.2375 22.9929 10.7562 23.4881L10.0754 24.4519C10.0282 24.5167 9.97221 24.5727 9.90736 24.6199C9.84252 24.6671 9.7541 24.6906 9.6421 24.6906C9.5242 24.6906 9.38863 24.6376 9.23536 24.5315C9.08799 24.4195 8.89642 24.2986 8.66063 24.1689C8.43073 24.0334 8.13894 23.9125 7.78526 23.8064C7.43747 23.6944 7.00126 23.6384 6.47663 23.6384C5.86947 23.6384 5.31242 23.7445 4.80547 23.9567C4.29852 24.1689 3.86231 24.4784 3.49684 24.8852C3.13136 25.2919 2.84547 25.7871 2.63915 26.3706C2.43873 26.9542 2.33852 27.6174 2.33852 28.3601C2.33852 29.1087 2.44463 29.7778 2.65684 30.3673C2.86905 30.9508 3.16084 31.446 3.5322 31.8527C3.90357 32.2536 4.33978 32.5601 4.84084 32.7723C5.34189 32.9845 5.88126 33.0906 6.45894 33.0906C6.81263 33.0906 7.12799 33.0729 7.40505 33.0376C7.68799 32.9963 7.94736 32.9344 8.18315 32.8519C8.41894 32.7635 8.63999 32.6544 8.84631 32.5247C9.05852 32.3951 9.26778 32.2359 9.4741 32.0473C9.59199 31.9412 9.70989 31.8881 9.82778 31.8881ZM17.1944 30.7828C16.5165 30.8064 15.9447 30.8624 15.479 30.9508C15.0133 31.0334 14.636 31.1424 14.3472 31.278C14.0584 31.4077 13.8491 31.5639 13.7194 31.7466C13.5956 31.9294 13.5337 32.1298 13.5337 32.3479C13.5337 32.5601 13.5662 32.7428 13.631 32.8961C13.7017 33.0435 13.796 33.1673 13.9139 33.2675C14.0377 33.3618 14.1792 33.4325 14.3384 33.4797C14.5034 33.5209 14.6832 33.5416 14.8777 33.5416C15.3729 33.5416 15.7973 33.4502 16.151 33.2675C16.5106 33.0788 16.8584 32.8077 17.1944 32.454V30.7828ZM12.1544 26.9631C13.1742 26.014 14.3885 25.5395 15.7973 25.5395C16.316 25.5395 16.7758 25.6249 17.1767 25.7959C17.5834 25.9609 17.9224 26.1967 18.1935 26.5033C18.4706 26.8098 18.6798 27.1753 18.8213 27.5997C18.9687 28.0182 19.0424 28.4839 19.0424 28.9967V34.7264H18.1935C18.0108 34.7264 17.8723 34.6999 17.7779 34.6468C17.6836 34.5879 17.604 34.4729 17.5392 34.302L17.3535 33.5681C17.1236 33.7744 16.8967 33.9601 16.6727 34.1252C16.4487 34.2843 16.2158 34.4199 15.9742 34.5319C15.7384 34.6439 15.4819 34.7264 15.2049 34.7795C14.9337 34.8384 14.6331 34.8679 14.303 34.8679C13.9375 34.8679 13.5956 34.8178 13.2773 34.7176C12.9649 34.6174 12.6937 34.4671 12.4638 34.2666C12.2339 34.0603 12.0512 33.8068 11.9156 33.5062C11.7859 33.2056 11.7211 32.8519 11.7211 32.4452C11.7211 32.0974 11.8125 31.7584 11.9952 31.4283C12.1838 31.0982 12.4904 30.8035 12.9148 30.5441C13.3451 30.2788 13.908 30.0607 14.6036 29.8898C15.3051 29.7188 16.1687 29.6216 17.1944 29.598V28.9967C17.1944 28.3483 17.0558 27.8649 16.7788 27.5466C16.5017 27.2283 16.095 27.0692 15.5586 27.0692C15.1931 27.0692 14.8866 27.1163 14.639 27.2106C14.3914 27.2991 14.1763 27.3963 13.9935 27.5024C13.8108 27.6085 13.6487 27.7087 13.5072 27.8031C13.3657 27.8915 13.2154 27.9357 13.0563 27.9357C12.9266 27.9357 12.8146 27.9033 12.7203 27.8384C12.6318 27.7677 12.5582 27.6822 12.4992 27.582L12.1544 26.9631ZM23.0643 27.3786C23.3472 26.8068 23.6891 26.3588 24.09 26.0346C24.4908 25.7045 24.9712 25.5395 25.5312 25.5395C25.7258 25.5395 25.9085 25.5631 26.0794 25.6102C26.2504 25.6515 26.4036 25.7163 26.5392 25.8047L26.4066 27.2372C26.383 27.3374 26.3447 27.4081 26.2916 27.4494C26.2445 27.4847 26.1796 27.5024 26.0971 27.5024C26.0087 27.5024 25.882 27.4877 25.7169 27.4582C25.5519 27.4228 25.378 27.4052 25.1952 27.4052C24.93 27.4052 24.6942 27.4435 24.4879 27.5201C24.2874 27.5967 24.1047 27.7087 23.9396 27.8561C23.7805 28.0035 23.639 28.1833 23.5152 28.3955C23.3914 28.6077 23.2765 28.8494 23.1704 29.1205V34.7264H21.2693V25.7075H22.3746C22.575 25.7075 22.7135 25.7458 22.7902 25.8224C22.8668 25.8932 22.9199 26.0199 22.9493 26.2026L23.0643 27.3786ZM38.8329 24.1689C38.7681 24.2751 38.7003 24.3546 38.6296 24.4077C38.5588 24.4548 38.4704 24.4784 38.3643 24.4784C38.2523 24.4784 38.1256 24.4313 37.9841 24.3369C37.8485 24.2426 37.6776 24.1395 37.4712 24.0275C37.2708 23.9096 37.0321 23.8035 36.755 23.7092C36.478 23.6089 36.1479 23.5588 35.7647 23.5588C35.411 23.5588 35.0986 23.6031 34.8275 23.6915C34.5622 23.7799 34.3382 23.9037 34.1555 24.0628C33.9727 24.222 33.8342 24.4106 33.7399 24.6287C33.6515 24.8409 33.6072 25.0738 33.6072 25.3273C33.6072 25.6515 33.6927 25.9226 33.8637 26.1407C34.0346 26.3529 34.2586 26.5357 34.5357 26.6889C34.8186 26.8422 35.1399 26.9778 35.4995 27.0957C35.859 27.2077 36.2245 27.3285 36.5959 27.4582C36.9731 27.5879 37.3416 27.7353 37.7011 27.9003C38.0607 28.0654 38.379 28.2746 38.6561 28.5281C38.939 28.7816 39.166 29.0911 39.3369 29.4565C39.5079 29.822 39.5933 30.2671 39.5933 30.7917C39.5933 31.3576 39.4961 31.8881 39.3016 32.3833C39.107 32.8784 38.8241 33.3117 38.4527 33.6831C38.0872 34.0485 37.6333 34.3374 37.091 34.5496C36.5546 34.7618 35.9416 34.8679 35.2519 34.8679C34.8451 34.8679 34.4472 34.8266 34.0582 34.7441C33.675 34.6675 33.3066 34.5584 32.9529 34.4169C32.6051 34.2696 32.278 34.0927 31.9715 33.8864C31.6649 33.6801 31.3908 33.4502 31.1491 33.1967L31.7504 32.2064C31.8035 32.1239 31.8712 32.0591 31.9538 32.0119C32.0363 31.9647 32.1277 31.9412 32.2279 31.9412C32.3635 31.9412 32.5138 32.006 32.6788 32.1357C32.8439 32.2595 33.0413 32.398 33.2712 32.5513C33.507 32.6986 33.79 32.8372 34.1201 32.9668C34.4502 33.0906 34.8451 33.1525 35.3049 33.1525C36.0536 33.1525 36.6312 32.9698 37.038 32.6043C37.4506 32.2388 37.6569 31.7348 37.6569 31.0923C37.6569 30.7327 37.5715 30.4409 37.4005 30.2169C37.2296 29.9871 37.0026 29.7955 36.7197 29.6422C36.4426 29.4889 36.1243 29.3593 35.7647 29.2532C35.4051 29.1471 35.0397 29.0351 34.6683 28.9172C34.2969 28.7934 33.9315 28.6519 33.5719 28.4927C33.2123 28.3277 32.891 28.1155 32.6081 27.8561C32.331 27.5908 32.107 27.2666 31.9361 26.8835C31.7651 26.4944 31.6797 26.0111 31.6797 25.4334C31.6797 24.9736 31.7681 24.5285 31.9449 24.0982C32.1277 23.6679 32.39 23.2877 32.7319 22.9576C33.0797 22.6216 33.507 22.3534 34.014 22.1529C34.5209 21.9525 35.0986 21.8523 35.747 21.8523C36.478 21.8523 37.147 21.9673 37.7542 22.1972C38.3672 22.4271 38.8948 22.7542 39.3369 23.1786L38.8329 24.1689ZM47.3558 29.2001C47.3558 28.8818 47.3086 28.5871 47.2143 28.3159C47.1259 28.0388 46.9932 27.8001 46.8164 27.5997C46.6395 27.3934 46.4185 27.2342 46.1532 27.1222C45.8939 27.0043 45.5932 26.9454 45.2513 26.9454C44.5616 26.9454 44.0193 27.1428 43.6244 27.5378C43.2294 27.9327 42.9789 28.4868 42.8728 29.2001H47.3558ZM42.8198 30.3673C42.8433 30.8801 42.9229 31.3252 43.0585 31.7024C43.1941 32.0738 43.3739 32.3833 43.5979 32.6308C43.8278 32.8784 44.0989 33.0641 44.4113 33.1879C44.7296 33.3058 45.0833 33.3647 45.4724 33.3647C45.8438 33.3647 46.165 33.3235 46.4362 33.2409C46.7073 33.1525 46.9431 33.0582 47.1435 32.958C47.344 32.8519 47.5149 32.7576 47.6564 32.6751C47.7979 32.5866 47.9275 32.5424 48.0454 32.5424C48.1987 32.5424 48.3166 32.6014 48.3991 32.7193L48.9385 33.4178C48.7145 33.6831 48.461 33.9071 48.1781 34.0898C47.8951 34.2725 47.5945 34.4228 47.2762 34.5407C46.9579 34.6527 46.6307 34.7323 46.2947 34.7795C45.9587 34.8325 45.6315 34.8591 45.3132 34.8591C44.6884 34.8591 44.1078 34.7559 43.5713 34.5496C43.0408 34.3374 42.5781 34.0279 42.1831 33.6212C41.7941 33.2144 41.4875 32.7104 41.2635 32.1092C41.0454 31.5079 40.9364 30.8153 40.9364 30.0313C40.9364 29.4064 41.0336 28.8228 41.2282 28.2805C41.4286 27.7382 41.7115 27.2666 42.077 26.8658C42.4484 26.4649 42.8964 26.1496 43.421 25.9197C43.9515 25.6839 44.5499 25.566 45.216 25.566C45.7701 25.566 46.2829 25.6574 46.7545 25.8401C47.2261 26.0169 47.6328 26.2793 47.9747 26.6271C48.3166 26.9748 48.5819 27.4022 48.7705 27.9092C48.965 28.4102 49.0623 28.982 49.0623 29.6245C49.0623 29.9193 49.0299 30.1167 48.965 30.2169C48.9002 30.3172 48.7823 30.3673 48.6113 30.3673H42.8198ZM52.6301 27.3786C52.913 26.8068 53.2549 26.3588 53.6557 26.0346C54.0566 25.7045 54.537 25.5395 55.097 25.5395C55.2915 25.5395 55.4743 25.5631 55.6452 25.6102C55.8162 25.6515 55.9694 25.7163 56.105 25.8047L55.9724 27.2372C55.9488 27.3374 55.9105 27.4081 55.8574 27.4494C55.8103 27.4847 55.7454 27.5024 55.6629 27.5024C55.5745 27.5024 55.4477 27.4877 55.2827 27.4582C55.1176 27.4228 54.9437 27.4052 54.761 27.4052C54.4957 27.4052 54.26 27.4435 54.0536 27.5201C53.8532 27.5967 53.6705 27.7087 53.5054 27.8561C53.3463 28.0035 53.2048 28.1833 53.081 28.3955C52.9572 28.6077 52.8423 28.8494 52.7362 29.1205V34.7264H50.8351V25.7075H51.9404C52.1408 25.7075 52.2793 25.7458 52.356 25.8224C52.4326 25.8932 52.4856 26.0199 52.5151 26.2026L52.6301 27.3786ZM65.3033 25.7075L61.678 34.7264H59.9627L56.3374 25.7075H57.9024C58.0498 25.7075 58.1707 25.7458 58.265 25.8224C58.3652 25.8932 58.43 25.9786 58.4595 26.0788L60.4578 31.3311C60.5403 31.5786 60.614 31.8233 60.6789 32.0649C60.7437 32.3066 60.7997 32.5513 60.8469 32.7988C60.894 32.5513 60.95 32.3096 61.0149 32.0738C61.0856 31.8321 61.1622 31.5845 61.2448 31.3311L63.2784 26.0788C63.3138 25.9727 63.3787 25.8843 63.473 25.8136C63.5673 25.7428 63.6822 25.7075 63.8178 25.7075H65.3033ZM68.583 25.7075V34.7264H66.682V25.7075H68.583ZM68.9013 22.9841C68.9013 23.1551 68.866 23.3172 68.7952 23.4704C68.7304 23.6237 68.639 23.7593 68.5211 23.8772C68.4032 23.9892 68.2647 24.0805 68.1055 24.1513C67.9523 24.2161 67.7872 24.2485 67.6104 24.2485C67.4394 24.2485 67.2773 24.2161 67.1241 24.1513C66.9767 24.0805 66.847 23.9892 66.735 23.8772C66.623 23.7593 66.5316 23.6237 66.4609 23.4704C66.3961 23.3172 66.3636 23.1551 66.3636 22.9841C66.3636 22.8073 66.3961 22.6422 66.4609 22.4889C66.5316 22.3357 66.623 22.2031 66.735 22.0911C66.847 21.9732 66.9767 21.8818 67.1241 21.8169C67.2773 21.7462 67.4394 21.7108 67.6104 21.7108C67.7872 21.7108 67.9523 21.7462 68.1055 21.8169C68.2647 21.8818 68.4032 21.9732 68.5211 22.0911C68.639 22.2031 68.7304 22.3357 68.7952 22.4889C68.866 22.6422 68.9013 22.8073 68.9013 22.9841ZM77.3468 27.4759C77.2878 27.5525 77.2318 27.6115 77.1788 27.6527C77.1257 27.694 77.0491 27.7146 76.9489 27.7146C76.8487 27.7146 76.7426 27.6793 76.6306 27.6085C76.5245 27.5378 76.3948 27.4612 76.2415 27.3786C76.0942 27.2902 75.9144 27.2106 75.7022 27.1399C75.4899 27.0692 75.2247 27.0338 74.9064 27.0338C74.4937 27.0338 74.1312 27.1075 73.8188 27.2548C73.5123 27.4022 73.2529 27.6144 73.0407 27.8915C72.8344 28.1626 72.6782 28.4957 72.5721 28.8906C72.4718 29.2797 72.4217 29.7188 72.4217 30.2081C72.4217 30.7151 72.4777 31.166 72.5897 31.5609C72.7017 31.9559 72.8609 32.2889 73.0672 32.5601C73.2794 32.8313 73.5329 33.0376 73.8276 33.1791C74.1283 33.3205 74.4643 33.3913 74.8356 33.3913C75.2011 33.3913 75.4988 33.3471 75.7287 33.2586C75.9586 33.1702 76.1502 33.0729 76.3034 32.9668C76.4567 32.8607 76.5864 32.7635 76.6925 32.6751C76.8045 32.5866 76.9224 32.5424 77.0462 32.5424C77.1994 32.5424 77.3173 32.6014 77.3998 32.7193L77.9392 33.4178C77.7211 33.6831 77.4794 33.9071 77.2142 34.0898C76.9489 34.2725 76.6689 34.4228 76.3742 34.5407C76.0794 34.6527 75.7729 34.7323 75.4546 34.7795C75.1363 34.8325 74.815 34.8591 74.4908 34.8591C73.9308 34.8591 73.4062 34.7559 72.9169 34.5496C72.4335 34.3374 72.0091 34.0338 71.6436 33.6388C71.2841 33.238 70.9982 32.7517 70.7859 32.1799C70.5796 31.6022 70.4765 30.9449 70.4765 30.2081C70.4765 29.542 70.5708 28.926 70.7594 28.3601C70.9481 27.7883 71.2222 27.2961 71.5817 26.8835C71.9472 26.4708 72.3982 26.1496 72.9346 25.9197C73.471 25.6839 74.0899 25.566 74.7914 25.566C75.4457 25.566 76.0205 25.6721 76.5156 25.8843C77.0167 26.0965 77.4617 26.3972 77.8508 26.7862L77.3468 27.4759ZM85.2283 29.2001C85.2283 28.8818 85.1811 28.5871 85.0868 28.3159C84.9984 28.0388 84.8658 27.8001 84.6889 27.5997C84.5121 27.3934 84.291 27.2342 84.0258 27.1222C83.7664 27.0043 83.4658 26.9454 83.1239 26.9454C82.4342 26.9454 81.8919 27.1428 81.4969 27.5378C81.102 27.9327 80.8514 28.4868 80.7453 29.2001H85.2283ZM80.6923 30.3673C80.7159 30.8801 80.7954 31.3252 80.931 31.7024C81.0666 32.0738 81.2464 32.3833 81.4704 32.6308C81.7003 32.8784 81.9714 33.0641 82.2839 33.1879C82.6022 33.3058 82.9559 33.3647 83.3449 33.3647C83.7163 33.3647 84.0375 33.3235 84.3087 33.2409C84.5799 33.1525 84.8156 33.0582 85.0161 32.958C85.2165 32.8519 85.3874 32.7576 85.5289 32.6751C85.6704 32.5866 85.8001 32.5424 85.918 32.5424C86.0712 32.5424 86.1891 32.6014 86.2716 32.7193L86.811 33.4178C86.587 33.6831 86.3335 33.9071 86.0506 34.0898C85.7676 34.2725 85.467 34.4228 85.1487 34.5407C84.8304 34.6527 84.5032 34.7323 84.1672 34.7795C83.8312 34.8325 83.5041 34.8591 83.1858 34.8591C82.5609 34.8591 81.9803 34.7559 81.4439 34.5496C80.9133 34.3374 80.4506 34.0279 80.0556 33.6212C79.6666 33.2144 79.3601 32.7104 79.1361 32.1092C78.918 31.5079 78.8089 30.8153 78.8089 30.0313C78.8089 29.4064 78.9062 28.8228 79.1007 28.2805C79.3011 27.7382 79.5841 27.2666 79.9495 26.8658C80.3209 26.4649 80.7689 26.1496 81.2935 25.9197C81.8241 25.6839 82.4224 25.566 83.0885 25.566C83.6426 25.566 84.1554 25.6574 84.627 25.8401C85.0986 26.0169 85.5053 26.2793 85.8472 26.6271C86.1891 26.9748 86.4544 27.4022 86.643 27.9092C86.8375 28.4102 86.9348 28.982 86.9348 29.6245C86.9348 29.9193 86.9024 30.1167 86.8375 30.2169C86.7727 30.3172 86.6548 30.3673 86.4839 30.3673H80.6923ZM94.0925 27.3433C94.0453 27.4258 93.9923 27.4847 93.9333 27.5201C93.8744 27.5555 93.8007 27.5732 93.7123 27.5732C93.6121 27.5732 93.503 27.5437 93.3851 27.4847C93.2672 27.4199 93.1287 27.3492 92.9695 27.2725C92.8104 27.1959 92.6218 27.1281 92.4036 27.0692C92.1914 27.0043 91.9409 26.9719 91.6521 26.9719C91.4163 26.9719 91.2011 27.0014 91.0066 27.0603C90.818 27.1134 90.6559 27.1929 90.5203 27.2991C90.3906 27.3993 90.2904 27.5201 90.2196 27.6616C90.1489 27.7972 90.1135 27.9445 90.1135 28.1037C90.1135 28.3159 90.1784 28.4927 90.3081 28.6342C90.4378 28.7757 90.6087 28.8995 90.8209 29.0056C91.0331 29.1058 91.2748 29.1972 91.546 29.2797C91.8171 29.3622 92.0942 29.4506 92.3771 29.5449C92.6601 29.6393 92.9371 29.7483 93.2083 29.8721C93.4794 29.9959 93.7211 30.1492 93.9333 30.3319C94.1455 30.5087 94.3165 30.7268 94.4462 30.9862C94.5759 31.2397 94.6407 31.5492 94.6407 31.9146C94.6407 32.3391 94.5641 32.7311 94.4108 33.0906C94.2575 33.4502 94.0335 33.7626 93.7388 34.0279C93.4441 34.2932 93.0756 34.4995 92.6335 34.6468C92.1973 34.7942 91.6963 34.8679 91.1304 34.8679C90.818 34.8679 90.5144 34.8384 90.2196 34.7795C89.9308 34.7264 89.6538 34.6527 89.3885 34.5584C89.1291 34.4582 88.8845 34.3403 88.6546 34.2047C88.4306 34.0692 88.2302 33.9218 88.0533 33.7626L88.4954 33.0376C88.5485 32.9492 88.6133 32.8814 88.69 32.8342C88.7725 32.7812 88.8727 32.7546 88.9906 32.7546C89.1144 32.7546 89.2352 32.7959 89.3531 32.8784C89.4769 32.9551 89.6184 33.0405 89.7775 33.1348C89.9426 33.2292 90.1401 33.3176 90.37 33.4001C90.5999 33.4767 90.8858 33.5151 91.2276 33.5151C91.5106 33.5151 91.7552 33.4826 91.9615 33.4178C92.1679 33.3471 92.3388 33.2527 92.4744 33.1348C92.61 33.0169 92.7102 32.8843 92.775 32.7369C92.8399 32.5837 92.8723 32.4216 92.8723 32.2506C92.8723 32.0207 92.8074 31.8321 92.6778 31.6847C92.5481 31.5374 92.3742 31.4106 92.1561 31.3045C91.9439 31.1984 91.6992 31.1041 91.4222 31.0216C91.151 30.9391 90.874 30.8506 90.591 30.7563C90.3081 30.662 90.0281 30.5529 89.751 30.4292C89.4799 30.3054 89.2352 30.1492 89.0171 29.9605C88.8049 29.766 88.634 29.5332 88.5043 29.262C88.3746 28.9849 88.3098 28.6489 88.3098 28.254C88.3098 27.8944 88.3805 27.5525 88.522 27.2283C88.6693 26.9041 88.8815 26.6182 89.1586 26.3706C89.4415 26.1231 89.7864 25.9285 90.1931 25.7871C90.6058 25.6397 91.0803 25.566 91.6167 25.566C92.2239 25.566 92.775 25.6633 93.2702 25.8578C93.7653 26.0523 94.1809 26.3176 94.5169 26.6536L94.0925 27.3433Z" fill="#DEDEDE"/>
</svg>
