<svg viewBox="0 0 45 62" xmlns="http://www.w3.org/2000/svg">
  <g id="car-service-logo">
    <path d="M22.3292 61.6199C22.3292 61.6199 -5.2102 37.1576 1.4933 16.3908C5.63806 3.55077 15.3829 0.463604 22.6022 0.493818C29.8213 0.524032 39.5383 3.69267 43.5682 16.5669C50.086 37.3891 22.3292 61.6199 22.3292 61.6199Z" fill="#770022"/>
    <path d="M33.4381 13.3898C27.4785 7.44167 17.775 7.40106 11.7648 13.2991C5.7546 19.1971 5.71356 28.8004 11.6732 34.7485C17.6328 40.6967 27.3362 40.7373 33.3464 34.8392C39.3567 28.9412 39.3977 19.338 33.4381 13.3898Z" fill="#0a0908" style="fill: var(--black-dark, #0a0908)"/>
    <path d="M16.3281 15.3184C15.9906 15.0583 15.511 15.0899 15.2054 15.3888L13.7844 16.7951C13.4824 17.0939 13.4504 17.5686 13.7098 17.9061L16.5519 21.5628C16.7118 21.7701 16.964 21.8933 17.2269 21.8933H19.1489L23.0212 25.7257C22.499 26.7453 22.666 28.0251 23.5293 28.8759L27.5082 32.8137C27.9523 33.2532 28.6735 33.2532 29.1176 32.8137L31.3912 30.5636C31.8353 30.1241 31.8353 29.4103 31.3912 28.9708L27.4123 25.033C26.5526 24.1821 25.2594 24.0133 24.2292 24.5302L20.3568 20.6978V18.7992C20.3568 18.5355 20.2324 18.2894 20.0228 18.1312L16.3281 15.3184ZM14.2427 29.0693C13.7915 29.5158 13.5357 30.1241 13.5357 30.7569C13.5357 32.0754 14.6157 33.1443 15.9479 33.1443C16.5874 33.1443 17.202 32.8911 17.6532 32.4446L21.8382 28.3028C21.5611 27.5679 21.5185 26.7699 21.7103 26.0139L19.5183 23.8446L14.2427 29.0693ZM31.7252 20.2056C31.7252 19.8364 31.6861 19.4778 31.6116 19.1332C31.5262 18.7394 31.0395 18.6375 30.7518 18.9223L28.4817 21.1689C28.3751 21.2744 28.2294 21.3342 28.0802 21.3342H26.041C25.7284 21.3342 25.4726 21.0811 25.4726 20.7717V18.75C25.4726 18.6023 25.5329 18.4581 25.6395 18.3526L27.9096 16.106C28.1975 15.8212 28.0944 15.3395 27.6965 15.2552C27.3448 15.1813 26.9825 15.1426 26.6094 15.1426C23.7851 15.1426 21.4936 17.4104 21.4936 20.2056V20.2337L24.524 23.2328C25.8029 22.9129 27.2169 23.2504 28.2187 24.2418L28.7765 24.7939C30.5173 23.9852 31.7252 22.2343 31.7252 20.2056Z" fill="#dedede" style="fill: var(--grayscale-2, #dedede)"/>
  </g>
</svg>
