<svg xmlns="http://www.w3.org/2000/svg" width="80" height="110" viewBox="0 0 80 110" fill="none">
<g clip-path="url(#clip0_1551_744)">
<path d="M39.6961 109.327C39.6961 109.327 -9.26274 65.9258 2.65459 29.0814C10.0231 6.30071 27.3473 0.823492 40.1815 0.877097C53.0155 0.930703 70.2902 6.55248 77.4544 29.3939C89.0415 66.3364 39.6961 109.327 39.6961 109.327Z" fill="#770022"/>
<path d="M59.4452 23.7562C48.8504 13.2031 31.5998 13.131 20.915 23.5953C10.2301 34.0596 10.1572 51.0976 20.752 61.6507C31.3469 72.2039 48.5974 72.2759 59.2823 61.8116C69.9671 51.3474 70.0401 34.3094 59.4452 23.7562Z" fill="#0A0908"/>
<mask id="mask0_1551_744" style="mask-type:luminance" maskUnits="userSpaceOnUse" x="24" y="26" width="33" height="33">
<path d="M56.4014 26.8678H24.0645V58.8062H56.4014V26.8678Z" fill="white"/>
</mask>
<g mask="url(#mask0_1551_744)">
<path d="M29.0285 27.1804C28.4285 26.7189 27.576 26.7749 27.0327 27.3053L24.5065 29.8004C23.9695 30.3306 23.9127 31.1728 24.3737 31.7716L29.4265 38.2591C29.7107 38.6271 30.159 38.8455 30.6265 38.8455H34.0432L40.9275 45.6449C39.999 47.4539 40.2959 49.7245 41.8307 51.234L48.9043 58.2205C49.6938 59.0003 50.976 59.0003 51.7654 58.2205L55.8075 54.2283C56.597 53.4486 56.597 52.1822 55.8075 51.4024L48.7338 44.416C47.2054 42.9064 44.9065 42.6069 43.0749 43.5239L36.1907 36.7245V33.356C36.1907 32.8882 35.9695 32.4516 35.597 32.1708L29.0285 27.1804ZM25.3212 51.5772C24.519 52.3693 24.0643 53.4486 24.0643 54.5713C24.0643 56.9106 25.9843 58.8069 28.3527 58.8069C29.4895 58.8069 30.5822 58.3578 31.3843 57.5657L38.8243 50.2172C38.3317 48.9135 38.256 47.4976 38.597 46.1563L34.7 42.3076L25.3212 51.5772ZM56.4012 35.8512C56.4012 35.1963 56.3317 34.56 56.1992 33.9487C56.0475 33.2499 55.1822 33.0691 54.6707 33.5743L50.6349 37.5604C50.4454 37.7475 50.1865 37.8537 49.9212 37.8537H46.2959C45.7402 37.8537 45.2854 37.4045 45.2854 36.8556V33.2687C45.2854 33.0067 45.3927 32.7509 45.5822 32.5637L49.618 28.5777C50.1297 28.0725 49.9465 27.2179 49.239 27.0682C48.6138 26.9372 47.9697 26.8685 47.3065 26.8685C42.2854 26.8685 38.2117 30.892 38.2117 35.8512V35.9011L43.599 41.2221C45.8727 40.6545 48.3865 41.2533 50.1675 43.0123L51.159 43.9918C54.2538 42.557 56.4012 39.4505 56.4012 35.8512Z" fill="#DEDEDE"/>
</g>
</g>
<defs>
<clipPath id="clip0_1551_744">
<rect width="80" height="110" fill="white"/>
</clipPath>
</defs>
</svg>
