<svg width="30" height="30" viewBox="0 0 30 30" fill="none" xmlns="http://www.w3.org/2000/svg">
<path d="M6.42857 0C4.72361 0 3.08848 0.677294 1.88289 1.88289C0.677294 3.08848 0 4.72361 0 6.42857V23.5714C0 25.2764 0.677294 26.9115 1.88289 28.1171C3.08848 29.3227 4.72361 30 6.42857 30H23.5714C25.2764 30 26.9115 29.3227 28.1171 28.1171C29.3227 26.9115 30 25.2764 30 23.5714V6.42857C30 4.72361 29.3227 3.08848 28.1171 1.88289C26.9115 0.677294 25.2764 0 23.5714 0H6.42857Z" fill="#770022"/>
<path d="M22.6335 11.2782C22.8682 11.028 23 10.6885 23 10.3346C23 9.98062 22.8682 9.64116 22.6335 9.39089C22.3988 9.14061 22.0806 9 21.7487 9C21.4168 9 21.0985 9.14061 20.8639 9.39089L13.0005 17.78L10.1361 14.7224C9.90146 14.4721 9.58319 14.3315 9.25132 14.3315C8.91945 14.3315 8.60117 14.4721 8.3665 14.7224C8.13183 14.9727 8 15.3121 8 15.6661C8 16.02 8.13183 16.3595 8.3665 16.6098L12.1157 20.6084C12.2318 20.7325 12.3697 20.831 12.5215 20.8982C12.6734 20.9654 12.8361 21 13.0005 21C13.1649 21 13.3277 20.9654 13.4795 20.8982C13.6313 20.831 13.7693 20.7325 13.8853 20.6084L22.6335 11.2782Z" fill="#DEDEDE"/>
</svg>
