<svg width="24" height="24" viewBox="0 0 24 24" fill="none" xmlns="http://www.w3.org/2000/svg">
<path fill-rule="evenodd" clip-rule="evenodd" d="M12 15C10.3431 15 9 13.6569 9 12C9 10.3431 10.3431 9 12 9C13.6569 9 15 10.3431 15 12C15 13.6569 13.6569 15 12 15ZM12 13C12.5523 13 13 12.5523 13 12C13 11.4477 12.5523 11 12 11C11.4477 11 11 11.4477 11 12C11 12.5523 11.4477 13 12 13Z" fill="#7A7A7A"/>
<path fill-rule="evenodd" clip-rule="evenodd" d="M12 19C8.68497 19 5.43017 16.8301 2.20523 12.6069C1.93159 12.2486 1.93159 11.7514 2.20523 11.3931C5.43017 7.16987 8.68497 5 12 5C15.315 5 18.5698 7.16987 21.7948 11.3931C22.0684 11.7514 22.0684 12.2486 21.7948 12.6069C18.5698 16.8301 15.315 19 12 19ZM12 17C14.434 17 17.019 15.3661 19.7295 12C17.019 8.63391 14.434 7 12 7C9.56601 7 6.98096 8.63391 4.27049 12C6.98096 15.3661 9.56601 17 12 17Z" fill="#7A7A7A"/>
</svg>
