<svg width="40" height="40" viewBox="0 0 40 40" fill="none" xmlns="http://www.w3.org/2000/svg">
<g id="trash-delete">
<path id="shape" d="M11.666 15V33.3334H28.3327V15H31.666V35C31.666 35.9205 30.9198 36.6667 29.9993 36.6667H9.99935C9.07887 36.6667 8.33268 35.9205 8.33268 35V15H11.666ZM18.3327 15V30H14.9993V15H18.3327ZM24.9993 15V30H21.666V15H24.9993ZM24.9993 3.33337C25.7167 3.33337 26.3536 3.79242 26.5805 4.47299L27.866 8.33171L33.3327 8.33337V11.6667H6.66602V8.33337L12.131 8.33171L13.4182 4.47299C13.6451 3.79242 14.282 3.33337 14.9993 3.33337H24.9993ZM23.7981 6.66671H16.2006L15.6443 8.33171H24.3527L23.7981 6.66671Z" fill="#DEDEDE"/>
</g>
</svg>
