<svg width="30" height="30" viewBox="0 0 30 30" fill="none" xmlns="http://www.w3.org/2000/svg">
<g id="man (person)">
<g id="shape">
<path fill-rule="evenodd" clip-rule="evenodd" d="M15 2.5C11.5482 2.5 8.75 5.29822 8.75 8.75C8.75 12.2018 11.5482 15 15 15C18.4518 15 21.25 12.2018 21.25 8.75C21.25 5.29822 18.4518 2.5 15 2.5ZM11.25 8.75C11.25 6.67893 12.9289 5 15 5C17.0711 5 18.75 6.67893 18.75 8.75C18.75 10.8211 17.0711 12.5 15 12.5C12.9289 12.5 11.25 10.8211 11.25 8.75Z" fill="#DEDEDE"/>
<path d="M15.0001 16.25C8.23708 16.25 4.375 21.9979 4.375 27.5H6.875C6.875 23.0021 9.96634 18.75 15.0001 18.75C20.0339 18.75 23.125 23.0021 23.125 27.5H25.625C25.625 21.9979 21.7632 16.25 15.0001 16.25Z" fill="#DEDEDE"/>
</g>
</g>
</svg>
