<svg width="50" height="50" viewBox="0 0 50 50" fill="none" xmlns="http://www.w3.org/2000/svg">
<path d="M25 0C20.0555 0 15.222 1.46622 11.1108 4.21326C6.99952 6.96029 3.79521 10.8648 1.90302 15.4329C0.010832 20.0011 -0.484251 25.0277 0.480379 29.8773C1.44501 34.7268 3.82603 39.1814 7.32234 42.6777C10.8187 46.174 15.2732 48.555 20.1227 49.5196C24.9723 50.4843 29.9989 49.9892 34.5671 48.097C39.1352 46.2048 43.0397 43.0005 45.7867 38.8892C48.5338 34.778 50 29.9445 50 25C50 18.3696 47.3661 12.0107 42.6777 7.32233C37.9893 2.63392 31.6304 0 25 0ZM25 46.875C20.6735 46.875 16.4442 45.592 12.8469 43.1884C9.24959 40.7847 6.44581 37.3683 4.79015 33.3712C3.13448 29.3741 2.70128 24.9757 3.54533 20.7324C4.38938 16.4891 6.47277 12.5913 9.53205 9.53204C12.5913 6.47276 16.4891 4.38937 20.7324 3.54532C24.9757 2.70127 29.3741 3.13447 33.3712 4.79013C37.3683 6.4458 40.7847 9.24957 43.1884 12.8469C45.5921 16.4442 46.875 20.6735 46.875 25C46.875 30.8016 44.5703 36.3656 40.468 40.4679C36.3656 44.5703 30.8016 46.875 25 46.875Z" fill="#27AE60"/>
<path d="M40.5398 14.4508C40.2482 14.1621 39.8539 14 39.4428 14C39.0317 14 38.6374 14.1621 38.3459 14.4508L21.0748 31.5816L11.7392 22.2798C11.4544 21.9735 11.0592 21.7924 10.6405 21.7765C10.2218 21.7605 9.81381 21.9109 9.50637 22.1946C9.19894 22.4783 9.01721 22.872 9.00116 23.2893C8.98511 23.7065 9.13606 24.1129 9.4208 24.4193L21.0748 36L40.5398 16.6522C40.6856 16.5081 40.8013 16.3367 40.8803 16.1477C40.9593 15.9588 41 15.7562 41 15.5515C41 15.3469 40.9593 15.1442 40.8803 14.9553C40.8013 14.7664 40.6856 14.5949 40.5398 14.4508Z" fill="#27AE60"/>
</svg>
