<?xml version="1.0" standalone="no"?>
<!DOCTYPE svg PUBLIC "-//W3C//DTD SVG 20010904//EN"
  "http://www.w3.org/TR/2001/REC-SVG-20010904/DTD/svg10.dtd">
<svg width="24" height="24">
<g style="fill:black;fill-opacity:1;stroke:none;stroke-width:1;stroke-opacity:1;fill-rule:nonzero;fill:none;">
<g style="">
<g style="fill:black;">
  <path d="M11.93 2.29998C9.88997 1.79998 7.90997 1.94998 6.15997 2.57998C5.43997 2.83998 5.24997 3.79998 5.84997 4.28998C6.99246 5.22366 7.91275 6.39996 8.54408 7.73354C9.17542 9.06712 9.50194 10.5245 9.49997 12C9.50194 13.4755 9.17542 14.9329 8.54408 16.2664C7.91275 17.6 6.99246 18.7763 5.84997 19.71C5.25997 20.2 5.42997 21.16 6.15997 21.41C7.19997 21.79 8.32997 22 9.49997 22C15.55 22 20.35 16.62 19.37 10.4C18.76 6.47998 15.78 3.23998 11.93 2.29998Z"/>
</g>
</g>
</g>
</svg>
