<svg width="24" height="24" viewBox="0 0 24 24" fill="none" xmlns="http://www.w3.org/2000/svg">
<g id="Group">
<path id="Vector" d="M12 19C12.2449 19 12.4813 19.09 12.6644 19.2527C12.8474 19.4155 12.9643 19.6397 12.993 19.883L13 20V21C12.9997 21.2549 12.9021 21.5 12.7271 21.6854C12.5522 21.8707 12.313 21.9822 12.0586 21.9972C11.8042 22.0121 11.5536 21.9293 11.3582 21.7657C11.1627 21.6021 11.0371 21.3701 11.007 21.117L11 21V20C11 19.7348 11.1053 19.4804 11.2929 19.2929C11.4804 19.1054 11.7348 19 12 19ZM18.313 16.91L18.407 16.993L19.107 17.693C19.2863 17.873 19.3905 18.1144 19.3982 18.3684C19.406 18.6223 19.3168 18.8697 19.1487 19.0603C18.9807 19.2508 18.7464 19.3703 18.4935 19.3944C18.2406 19.4185 17.988 19.3454 17.787 19.19L17.693 19.107L16.993 18.407C16.8204 18.2347 16.7167 18.0054 16.7015 17.762C16.6862 17.5187 16.7603 17.2781 16.9099 17.0856C17.0596 16.8931 17.2744 16.7619 17.514 16.7166C17.7536 16.6714 18.0015 16.7153 18.211 16.84L18.313 16.91ZM7.00699 16.993C7.17917 17.1652 7.2826 17.3943 7.29788 17.6373C7.31316 17.8803 7.23924 18.1206 7.08999 18.313L7.00699 18.407L6.30699 19.107C6.12703 19.2863 5.88556 19.3905 5.63161 19.3982C5.37766 19.406 5.13028 19.3168 4.93971 19.1488C4.74915 18.9807 4.62969 18.7464 4.60559 18.4935C4.5815 18.2406 4.65458 17.988 4.80999 17.787L4.89299 17.693L5.59299 16.993C5.78052 16.8055 6.03483 16.7002 6.29999 16.7002C6.56516 16.7002 6.81946 16.8055 7.00699 16.993ZM3.99999 11C4.25487 11.0003 4.50002 11.0979 4.68536 11.2728C4.8707 11.4478 4.98223 11.687 4.99716 11.9414C5.0121 12.1958 4.92932 12.4464 4.76573 12.6418C4.60214 12.8373 4.37009 12.9629 4.11699 12.993L3.99999 13H2.99999C2.74511 12.9997 2.49996 12.9021 2.31462 12.7272C2.12929 12.5522 2.01776 12.313 2.00282 12.0586C1.98788 11.8042 2.07067 11.5536 2.23426 11.3582C2.39785 11.1627 2.62989 11.0371 2.88299 11.007L2.99999 11H3.99999ZM21 11C21.2549 11.0003 21.5 11.0979 21.6854 11.2728C21.8707 11.4478 21.9822 11.687 21.9972 11.9414C22.0121 12.1958 21.9293 12.4464 21.7657 12.6418C21.6021 12.8373 21.3701 12.9629 21.117 12.993L21 13H20C19.7451 12.9997 19.5 12.9021 19.3146 12.7272C19.1293 12.5522 19.0178 12.313 19.0028 12.0586C18.9879 11.8042 19.0707 11.5536 19.2343 11.3582C19.3978 11.1627 19.6299 11.0371 19.883 11.007L20 11H21ZM6.21299 4.81L6.30699 4.893L7.00699 5.593C7.18634 5.77296 7.29046 6.01443 7.29822 6.26838C7.30597 6.52233 7.21678 6.76971 7.04874 6.96028C6.88071 7.15084 6.64644 7.27031 6.39352 7.2944C6.14059 7.31849 5.88798 7.24541 5.68699 7.09L5.59299 7.007L4.89299 6.307C4.72108 6.13468 4.61792 5.90557 4.60286 5.66263C4.58779 5.41969 4.66185 5.17959 4.81115 4.98735C4.96046 4.79511 5.17475 4.66393 5.41386 4.61839C5.65297 4.57285 5.90048 4.61609 6.10999 4.74L6.21299 4.81ZM19.107 4.893C19.2792 5.06519 19.3826 5.29429 19.3979 5.53732C19.4132 5.78034 19.3392 6.0206 19.19 6.213L19.107 6.307L18.407 7.007C18.227 7.18635 17.9856 7.29047 17.7316 7.29823C17.4777 7.30598 17.2303 7.21678 17.0397 7.04875C16.8491 6.88072 16.7297 6.64645 16.7056 6.39353C16.6815 6.1406 16.7546 5.88799 16.91 5.687L16.993 5.593L17.693 4.893C17.8805 4.70553 18.1348 4.60021 18.4 4.60021C18.6652 4.60021 18.9195 4.70553 19.107 4.893ZM12 2C12.2449 2.00003 12.4813 2.08996 12.6644 2.25272C12.8474 2.41547 12.9643 2.63975 12.993 2.883L13 3V4C12.9997 4.25488 12.9021 4.50003 12.7271 4.68537C12.5522 4.8707 12.313 4.98223 12.0586 4.99717C11.8042 5.01211 11.5536 4.92933 11.3582 4.76574C11.1627 4.60214 11.0371 4.3701 11.007 4.117L11 4V3C11 2.73478 11.1053 2.48043 11.2929 2.29289C11.4804 2.10536 11.7348 2 12 2ZM12 7C12.9797 6.99994 13.9378 7.28769 14.7553 7.8275C15.5729 8.36731 16.2138 9.1354 16.5986 10.0364C16.9833 10.9373 17.0949 11.9315 16.9195 12.8953C16.744 13.8592 16.2893 14.7502 15.6118 15.4579C14.9343 16.1655 14.0638 16.6585 13.1085 16.8756C12.1532 17.0928 11.1552 17.0245 10.2383 16.6793C9.32149 16.334 8.52628 15.7271 7.95145 14.9338C7.37662 14.1405 7.04751 13.1958 7.00499 12.217L6.99999 12L7.00499 11.783C7.06091 10.4958 7.6116 9.27978 8.54221 8.38866C9.47283 7.49754 10.7115 7.00007 12 7Z" fill="#DEDEDE"/>
</g>
</svg>
