<svg width="50" height="50" viewBox="0 0 50 50" fill="none" xmlns="http://www.w3.org/2000/svg">
<path d="M1.16056 16.3542C1.5997 15.7999 2.13925 15.3555 2.74371 15.0503C3.34816 14.7451 4.0038 14.5859 4.66746 14.5833H18.2041V9.375C18.2041 6.8886 19.0908 4.50403 20.6693 2.74587C22.2477 0.98772 24.3884 0 26.6207 0C26.7939 0.0043097 26.9629 0.0595798 27.1108 0.1602C27.2586 0.260821 27.3799 0.40321 27.4623 0.572917L36.5569 20.8333H47.1945C47.9385 20.8333 48.6521 21.1626 49.1783 21.7486C49.7044 22.3347 50 23.1295 50 23.9583V46.875C50 47.7038 49.7044 48.4987 49.1783 49.0847C48.6521 49.6708 47.9385 50 47.1945 50H7.47298C6.33583 49.9973 5.23854 49.533 4.38648 48.6942C3.53443 47.8554 2.98601 46.6994 2.84387 45.4427L0.0383492 20.4427C-0.0464592 19.7115 0.00976944 18.9686 0.203293 18.2635C0.396812 17.5585 0.723167 16.9075 1.16056 16.3542ZM48.1297 46.875V23.9583C48.1297 23.6821 48.0311 23.4171 47.8557 23.2218C47.6804 23.0264 47.4425 22.9167 47.1945 22.9167H36.9076V47.9167H47.1945C47.4425 47.9167 47.6804 47.8069 47.8557 47.6116C48.0311 47.4162 48.1297 47.1513 48.1297 46.875ZM1.88531 20.1823L4.69084 45.1823C4.78096 45.935 5.11207 46.6261 5.62325 47.1285C6.13442 47.6309 6.79128 47.9108 7.47298 47.9167H35.0372V22.1094L26.0596 2.10938C24.4284 2.27165 22.9105 3.10665 21.8034 4.45069C20.6962 5.79473 20.0796 7.55091 20.0744 9.375V15.625C20.0744 15.9013 19.9759 16.1662 19.8005 16.3616C19.6252 16.5569 19.3873 16.6667 19.1393 16.6667H4.66746C4.269 16.6695 3.87559 16.7661 3.51299 16.9501C3.15038 17.1341 2.82676 17.4014 2.56332 17.7344C2.30396 18.0676 2.10973 18.4574 1.993 18.8788C1.87627 19.3003 1.8396 19.7442 1.88531 20.1823Z" fill="#DEDEDE"/>
</svg>
