<svg width="153" height="151" viewBox="0 0 153 151" fill="none" xmlns="http://www.w3.org/2000/svg">
<mask id="mask0_2569_5135" style="mask-type:luminance" maskUnits="userSpaceOnUse" x="26" y="26" width="100" height="100">
<path d="M126 26H26V126H126V26Z" fill="white"/>
</mask>
<g mask="url(#mask0_2569_5135)">
<path d="M41.3551 26.9788C39.4996 25.5337 36.8632 25.7093 35.1833 27.3697L27.371 35.1821C25.7105 36.8421 25.5349 39.479 26.9606 41.3539L42.5857 61.6665C43.4647 62.8186 44.8511 63.5025 46.2967 63.5025H56.8629L78.1519 84.7916C75.2807 90.4555 76.199 97.5649 80.9451 102.291L102.82 124.166C105.261 126.608 109.226 126.608 111.668 124.166L124.167 111.666C126.609 109.225 126.609 105.26 124.167 102.818L102.292 80.9439C97.5661 76.2172 90.4567 75.2795 84.7928 78.1507L63.5037 56.8617V46.3149C63.5037 44.8499 62.8197 43.4829 61.6677 42.6039L41.3551 26.9788ZM29.8905 103.366C27.4098 105.846 26.0035 109.225 26.0035 112.74C26.0035 120.065 31.941 126.002 39.2653 126.002C42.7808 126.002 46.1599 124.596 48.6401 122.116L71.6479 99.1075C70.1247 95.0255 69.8904 90.5923 70.945 86.3929L58.8939 74.3423L29.8905 103.366ZM126.003 54.1272C126.003 52.0767 125.789 50.0845 125.379 48.1703C124.91 45.9826 122.234 45.4165 120.652 46.9984L108.172 59.4787C107.586 60.0647 106.785 60.397 105.964 60.397H94.7536C93.0349 60.397 91.6286 58.9907 91.6286 57.272V46.0413C91.6286 45.221 91.9604 44.4201 92.5464 43.8341L105.027 31.3538C106.609 29.7719 106.043 27.0962 103.855 26.6276C101.921 26.2172 99.9295 26.0023 97.8785 26.0023C82.3513 26.0023 69.7536 38.6 69.7536 54.1272V54.2834L86.4135 70.9438C93.4448 69.1664 101.218 71.0413 106.726 76.549L109.792 79.6157C119.363 75.1233 126.003 65.3968 126.003 54.1272Z" fill="#DEDEDE"/>
</g>
</svg>
