<svg width="30" height="30" viewBox="0 0 30 30" fill="none" xmlns="http://www.w3.org/2000/svg">
<path d="M15.4994 23.944L9.44014 27.7659C9.17246 27.9443 8.89261 28.0207 8.6006 27.9952C8.30859 27.9697 8.05308 27.8678 7.83407 27.6895C7.61506 27.5111 7.44472 27.2879 7.32305 27.0199C7.20138 26.7518 7.17704 26.4527 7.25005 26.1225L8.85611 18.8991L3.4904 14.0453C3.24706 13.816 3.09521 13.5546 3.03486 13.261C2.97451 12.9675 2.99252 12.6811 3.08888 12.4019C3.18622 12.1216 3.33223 11.8923 3.5269 11.7139C3.72157 11.5356 3.98925 11.4209 4.32993 11.37L11.4112 10.7202L14.1488 3.91726C14.2705 3.6115 14.4593 3.38219 14.7153 3.22931C14.9713 3.07644 15.2327 3 15.4994 3C15.7671 3 16.0284 3.07644 16.2834 3.22931C16.5385 3.38219 16.7273 3.6115 16.8499 3.91726L19.5875 10.7202L26.6688 11.37C27.0095 11.4209 27.2772 11.5356 27.4719 11.7139C27.6665 11.8923 27.8125 12.1216 27.9099 12.4019C28.0072 12.6821 28.0257 12.969 27.9654 13.2626C27.905 13.5561 27.7527 13.817 27.5084 14.0453L22.1426 18.8991L23.7487 26.1225C23.8217 26.4537 23.7974 26.7534 23.6757 27.0214C23.554 27.2894 23.3837 27.5121 23.1647 27.6895C22.9457 27.8678 22.6902 27.9697 22.3982 27.9952C22.1061 28.0207 21.8263 27.9443 21.5586 27.7659L15.4994 23.944Z" fill="#D19C0E"/>
</svg>
