<svg width="45" height="62" viewBox="0 0 45 62" fill="none" xmlns="http://www.w3.org/2000/svg">
<g clip-path="url(#clip0_554_844)">
<path d="M22.3293 61.6199C22.3293 61.6199 -5.21005 37.1577 1.49345 16.3908C5.63822 3.55082 15.3831 0.463657 22.6023 0.493871C29.8215 0.524085 39.5385 3.69272 43.5684 16.567C50.0861 37.3891 22.3293 61.6199 22.3293 61.6199Z" fill="#770022"/>
<path d="M33.4381 13.3899C27.4785 7.44172 17.775 7.40112 11.7648 13.2992C5.75457 19.1972 5.71353 28.8004 11.6731 34.7486C17.6327 40.6967 27.3362 40.7373 33.3464 34.8393C39.3566 28.9412 39.3977 19.338 33.4381 13.3899Z" fill="#0A0908"/>
<mask id="mask0_554_844" style="mask-type:luminance" maskUnits="userSpaceOnUse" x="13" y="15" width="19" height="19">
<path d="M31.7257 15.1427H13.5361V33.1444H31.7257V15.1427Z" fill="white"/>
</mask>
<g mask="url(#mask0_554_844)">
<path d="M16.3285 15.3184C15.991 15.0583 15.5115 15.0899 15.2059 15.3888L13.7849 16.7951C13.4829 17.094 13.4509 17.5687 13.7102 17.9062L16.5524 21.5628C16.7123 21.7702 16.9644 21.8933 17.2274 21.8933H19.1493L23.0217 25.7257C22.4994 26.7453 22.6665 28.0251 23.5298 28.8759L27.5086 32.8138C27.9527 33.2533 28.674 33.2533 29.1181 32.8138L31.3917 30.5636C31.8358 30.1241 31.8358 29.4103 31.3917 28.9708L27.4127 25.033C26.5531 24.1821 25.2599 24.0133 24.2296 24.5302L20.3573 20.6978V18.7992C20.3573 18.5355 20.2329 18.2894 20.0233 18.1312L16.3285 15.3184ZM14.2432 29.0693C13.7919 29.5158 13.5361 30.1241 13.5361 30.7569C13.5361 32.0754 14.6161 33.1443 15.9484 33.1443C16.5879 33.1443 17.2025 32.8911 17.6536 32.4446L21.8386 28.3028C21.5616 27.5679 21.519 26.7699 21.7108 26.0139L19.5188 23.8446L14.2432 29.0693ZM31.7257 20.2056C31.7257 19.8365 31.6866 19.4778 31.612 19.1332C31.5267 18.7394 31.04 18.6375 30.7523 18.9223L28.4822 21.1689C28.3756 21.2744 28.2299 21.3342 28.0807 21.3342H26.0415C25.7289 21.3342 25.4731 21.0811 25.4731 20.7717V18.75C25.4731 18.6023 25.5334 18.4581 25.64 18.3527L27.9101 16.106C28.1979 15.8212 28.0949 15.3395 27.6969 15.2552C27.3452 15.1813 26.9829 15.1426 26.6099 15.1426C23.7856 15.1426 21.4941 17.4104 21.4941 20.2056V20.2337L24.5244 23.2328C25.8034 22.9129 27.2174 23.2504 28.2192 24.2419L28.7769 24.7939C30.5177 23.9852 31.7257 22.2343 31.7257 20.2056Z" fill="#DEDEDE"/>
</g>
</g>
<defs>
<clipPath id="clip0_554_844">
<rect width="45" height="62" fill="white"/>
</clipPath>
</defs>
</svg>
